<svg id="visual" viewBox="0 0 960 540" width="960" height="540" xmlns="http://www.w3.org/2000/svg" xmlns:xlink="http://www.w3.org/1999/xlink" version="1.1"><rect x="0" y="0" width="960" height="540" fill="#282a36"></rect><path d="M0 374L22.8 373.8C45.7 373.7 91.3 373.3 137 378.3C182.7 383.3 228.3 393.7 274 394.3C319.7 395 365.3 386 411.2 382.3C457 378.7 503 380.3 548.8 384.5C594.7 388.7 640.3 395.3 686 398.2C731.7 401 777.3 400 823 399.3C868.7 398.7 914.3 398.3 937.2 398.2L960 398L960 541L937.2 541C914.3 541 868.7 541 823 541C777.3 541 731.7 541 686 541C640.3 541 594.7 541 548.8 541C503 541 457 541 411.2 541C365.3 541 319.7 541 274 541C228.3 541 182.7 541 137 541C91.3 541 45.7 541 22.8 541L0 541Z" fill="#ff79c6"></path><path d="M0 425L22.8 424.8C45.7 424.7 91.3 424.3 137 422.2C182.7 420 228.3 416 274 411.7C319.7 407.3 365.3 402.7 411.2 400.2C457 397.7 503 397.3 548.8 400.5C594.7 403.7 640.3 410.3 686 415C731.7 419.7 777.3 422.3 823 418.8C868.7 415.3 914.3 405.7 937.2 400.8L960 396L960 541L937.2 541C914.3 541 868.7 541 823 541C777.3 541 731.7 541 686 541C640.3 541 594.7 541 548.8 541C503 541 457 541 411.2 541C365.3 541 319.7 541 274 541C228.3 541 182.7 541 137 541C91.3 541 45.7 541 22.8 541L0 541Z" fill="#ff7a97"></path><path d="M0 433L22.8 433.8C45.7 434.7 91.3 436.3 137 435.2C182.7 434 228.3 430 274 431.5C319.7 433 365.3 440 411.2 438.7C457 437.3 503 427.7 548.8 425C594.7 422.3 640.3 426.7 686 426.7C731.7 426.7 777.3 422.3 823 422C868.7 421.7 914.3 425.3 937.2 427.2L960 429L960 541L937.2 541C914.3 541 868.7 541 823 541C777.3 541 731.7 541 686 541C640.3 541 594.7 541 548.8 541C503 541 457 541 411.2 541C365.3 541 319.7 541 274 541C228.3 541 182.7 541 137 541C91.3 541 45.7 541 22.8 541L0 541Z" fill="#ff8d68"></path><path d="M0 459L22.8 459.8C45.7 460.7 91.3 462.3 137 463.2C182.7 464 228.3 464 274 459.5C319.7 455 365.3 446 411.2 445.3C457 444.7 503 452.3 548.8 455C594.7 457.7 640.3 455.3 686 455.3C731.7 455.3 777.3 457.7 823 457.8C868.7 458 914.3 456 937.2 455L960 454L960 541L937.2 541C914.3 541 868.7 541 823 541C777.3 541 731.7 541 686 541C640.3 541 594.7 541 548.8 541C503 541 457 541 411.2 541C365.3 541 319.7 541 274 541C228.3 541 182.7 541 137 541C91.3 541 45.7 541 22.8 541L0 541Z" fill="#ffa942"></path><path d="M0 465L22.8 464.8C45.7 464.7 91.3 464.3 137 464.7C182.7 465 228.3 466 274 466.5C319.7 467 365.3 467 411.2 467C457 467 503 467 548.8 467C594.7 467 640.3 467 686 467.8C731.7 468.7 777.3 470.3 823 471.8C868.7 473.3 914.3 474.7 937.2 475.3L960 476L960 541L937.2 541C914.3 541 868.7 541 823 541C777.3 541 731.7 541 686 541C640.3 541 594.7 541 548.8 541C503 541 457 541 411.2 541C365.3 541 319.7 541 274 541C228.3 541 182.7 541 137 541C91.3 541 45.7 541 22.8 541L0 541Z" fill="#dfc72e"></path><path d="M0 486L22.8 486.7C45.7 487.3 91.3 488.7 137 488.5C182.7 488.3 228.3 486.7 274 485.8C319.7 485 365.3 485 411.2 484.8C457 484.7 503 484.3 548.8 486.5C594.7 488.7 640.3 493.3 686 493.7C731.7 494 777.3 490 823 490C868.7 490 914.3 494 937.2 496L960 498L960 541L937.2 541C914.3 541 868.7 541 823 541C777.3 541 731.7 541 686 541C640.3 541 594.7 541 548.8 541C503 541 457 541 411.2 541C365.3 541 319.7 541 274 541C228.3 541 182.7 541 137 541C91.3 541 45.7 541 22.8 541L0 541Z" fill="#ade244"></path><path d="M0 518L22.8 517C45.7 516 91.3 514 137 513C182.7 512 228.3 512 274 510.8C319.7 509.7 365.3 507.3 411.2 507.8C457 508.3 503 511.7 548.8 513.7C594.7 515.7 640.3 516.3 686 516.3C731.7 516.3 777.3 515.7 823 514.5C868.7 513.3 914.3 511.7 937.2 510.8L960 510L960 541L937.2 541C914.3 541 868.7 541 823 541C777.3 541 731.7 541 686 541C640.3 541 594.7 541 548.8 541C503 541 457 541 411.2 541C365.3 541 319.7 541 274 541C228.3 541 182.7 541 137 541C91.3 541 45.7 541 22.8 541L0 541Z" fill="#50fa7b"></path></svg>