<svg id="visual" viewBox="0 0 960 540" width="960" height="540" xmlns="http://www.w3.org/2000/svg" xmlns:xlink="http://www.w3.org/1999/xlink" version="1.1"><rect x="0" y="0" width="960" height="540" fill="#282a36"></rect><defs><linearGradient id="grad1_0" x1="43.8%" y1="100%" x2="100%" y2="0%"><stop offset="14.444444444444446%" stop-color="#ff79c6" stop-opacity="1"></stop><stop offset="85.55555555555554%" stop-color="#ff79c6" stop-opacity="1"></stop></linearGradient></defs><defs><linearGradient id="grad1_1" x1="43.8%" y1="100%" x2="100%" y2="0%"><stop offset="14.444444444444446%" stop-color="#ff79c6" stop-opacity="1"></stop><stop offset="85.55555555555554%" stop-color="#d771bb" stop-opacity="1"></stop></linearGradient></defs><defs><linearGradient id="grad1_2" x1="43.8%" y1="100%" x2="100%" y2="0%"><stop offset="14.444444444444446%" stop-color="#b068ac" stop-opacity="1"></stop><stop offset="85.55555555555554%" stop-color="#d771bb" stop-opacity="1"></stop></linearGradient></defs><defs><linearGradient id="grad1_3" x1="43.8%" y1="100%" x2="100%" y2="0%"><stop offset="14.444444444444446%" stop-color="#b068ac" stop-opacity="1"></stop><stop offset="85.55555555555554%" stop-color="#8c5e99" stop-opacity="1"></stop></linearGradient></defs><defs><linearGradient id="grad1_4" x1="43.8%" y1="100%" x2="100%" y2="0%"><stop offset="14.444444444444446%" stop-color="#6c5283" stop-opacity="1"></stop><stop offset="85.55555555555554%" stop-color="#8c5e99" stop-opacity="1"></stop></linearGradient></defs><defs><linearGradient id="grad1_5" x1="43.8%" y1="100%" x2="100%" y2="0%"><stop offset="14.444444444444446%" stop-color="#6c5283" stop-opacity="1"></stop><stop offset="85.55555555555554%" stop-color="#50466a" stop-opacity="1"></stop></linearGradient></defs><defs><linearGradient id="grad1_6" x1="43.8%" y1="100%" x2="100%" y2="0%"><stop offset="14.444444444444446%" stop-color="#393850" stop-opacity="1"></stop><stop offset="85.55555555555554%" stop-color="#50466a" stop-opacity="1"></stop></linearGradient></defs><defs><linearGradient id="grad1_7" x1="43.8%" y1="100%" x2="100%" y2="0%"><stop offset="14.444444444444446%" stop-color="#393850" stop-opacity="1"></stop><stop offset="85.55555555555554%" stop-color="#282a36" stop-opacity="1"></stop></linearGradient></defs><defs><linearGradient id="grad2_0" x1="0%" y1="100%" x2="56.3%" y2="0%"><stop offset="14.444444444444446%" stop-color="#ff79c6" stop-opacity="1"></stop><stop offset="85.55555555555554%" stop-color="#ff79c6" stop-opacity="1"></stop></linearGradient></defs><defs><linearGradient id="grad2_1" x1="0%" y1="100%" x2="56.3%" y2="0%"><stop offset="14.444444444444446%" stop-color="#d771bb" stop-opacity="1"></stop><stop offset="85.55555555555554%" stop-color="#ff79c6" stop-opacity="1"></stop></linearGradient></defs><defs><linearGradient id="grad2_2" x1="0%" y1="100%" x2="56.3%" y2="0%"><stop offset="14.444444444444446%" stop-color="#d771bb" stop-opacity="1"></stop><stop offset="85.55555555555554%" stop-color="#b068ac" stop-opacity="1"></stop></linearGradient></defs><defs><linearGradient id="grad2_3" x1="0%" y1="100%" x2="56.3%" y2="0%"><stop offset="14.444444444444446%" stop-color="#8c5e99" stop-opacity="1"></stop><stop offset="85.55555555555554%" stop-color="#b068ac" stop-opacity="1"></stop></linearGradient></defs><defs><linearGradient id="grad2_4" x1="0%" y1="100%" x2="56.3%" y2="0%"><stop offset="14.444444444444446%" stop-color="#8c5e99" stop-opacity="1"></stop><stop offset="85.55555555555554%" stop-color="#6c5283" stop-opacity="1"></stop></linearGradient></defs><defs><linearGradient id="grad2_5" x1="0%" y1="100%" x2="56.3%" y2="0%"><stop offset="14.444444444444446%" stop-color="#50466a" stop-opacity="1"></stop><stop offset="85.55555555555554%" stop-color="#6c5283" stop-opacity="1"></stop></linearGradient></defs><defs><linearGradient id="grad2_6" x1="0%" y1="100%" x2="56.3%" y2="0%"><stop offset="14.444444444444446%" stop-color="#50466a" stop-opacity="1"></stop><stop offset="85.55555555555554%" stop-color="#393850" stop-opacity="1"></stop></linearGradient></defs><defs><linearGradient id="grad2_7" x1="0%" y1="100%" x2="56.3%" y2="0%"><stop offset="14.444444444444446%" stop-color="#282a36" stop-opacity="1"></stop><stop offset="85.55555555555554%" stop-color="#393850" stop-opacity="1"></stop></linearGradient></defs><g transform="translate(960, 540)"><path d="M-162 0C-158 -19.5 -154.1 -39 -147.8 -61.2C-141.6 -83.5 -133.1 -108.4 -114.6 -114.6C-96 -120.7 -67.5 -107.9 -46.7 -112.7C-25.9 -117.5 -13 -139.7 0 -162L0 0Z" fill="#303143"></path><path d="M-141.7 0C-138.3 -17.1 -134.8 -34.1 -129.3 -53.6C-123.9 -73 -116.4 -94.9 -100.2 -100.2C-84 -105.6 -59 -94.5 -40.9 -98.6C-22.7 -102.8 -11.3 -122.3 0 -141.7L0 0Z" fill="#443f5d"></path><path d="M-121.5 0C-118.5 -14.6 -115.5 -29.2 -110.9 -45.9C-106.2 -62.6 -99.8 -81.3 -85.9 -85.9C-72 -90.5 -50.6 -81 -35 -84.5C-19.4 -88.1 -9.7 -104.8 0 -121.5L0 0Z" fill="#5d4c77"></path><path d="M-101.2 0C-98.8 -12.2 -96.3 -24.4 -92.4 -38.3C-88.5 -52.2 -83.2 -67.8 -71.6 -71.6C-60 -75.4 -42.2 -67.5 -29.2 -70.4C-16.2 -73.4 -8.1 -87.3 0 -101.2L0 0Z" fill="#7b588e"></path><path d="M-81 0C-79 -9.7 -77 -19.5 -73.9 -30.6C-70.8 -41.7 -66.5 -54.2 -57.3 -57.3C-48 -60.3 -33.7 -54 -23.3 -56.4C-13 -58.7 -6.5 -69.9 0 -81L0 0Z" fill="#9e63a3"></path><path d="M-60.7 0C-59.3 -7.3 -57.8 -14.6 -55.4 -23C-53.1 -31.3 -49.9 -40.7 -43 -43C-36 -45.3 -25.3 -40.5 -17.5 -42.3C-9.7 -44.1 -4.9 -52.4 0 -60.7L0 0Z" fill="#c36cb4"></path><path d="M-40.5 0C-39.5 -4.9 -38.5 -9.7 -37 -15.3C-35.4 -20.9 -33.3 -27.1 -28.6 -28.6C-24 -30.2 -16.9 -27 -11.7 -28.2C-6.5 -29.4 -3.2 -34.9 0 -40.5L0 0Z" fill="#eb75c1"></path><path d="M-20.2 0C-19.8 -2.4 -19.3 -4.9 -18.5 -7.7C-17.7 -10.4 -16.6 -13.6 -14.3 -14.3C-12 -15.1 -8.4 -13.5 -5.8 -14.1C-3.2 -14.7 -1.6 -17.5 0 -20.2L0 0Z" fill="#ff79c6"></path></g><g transform="translate(0, 0)"><path d="M162 0C161.6 23 161.2 46 149.7 62C138.1 78 115.5 87.1 99 99C82.5 110.9 72.1 125.8 56.6 136.7C41.2 147.7 20.6 154.9 0 162L0 0Z" fill="#303143"></path><path d="M141.8 0C141.4 20.1 141 40.2 131 54.2C120.9 68.3 101.1 76.2 86.6 86.6C72.2 97.1 63.1 110 49.6 119.6C36 129.3 18 135.5 0 141.8L0 0Z" fill="#443f5d"></path><path d="M121.5 0C121.2 17.2 120.9 34.5 112.3 46.5C103.6 58.5 86.6 65.3 74.2 74.2C61.9 83.2 54.1 94.3 42.5 102.6C30.9 110.8 15.4 116.1 0 121.5L0 0Z" fill="#5d4c77"></path><path d="M101.3 0C101 14.4 100.7 28.7 93.5 38.7C86.3 48.8 72.2 54.4 61.9 61.9C51.6 69.3 45.1 78.6 35.4 85.5C25.7 92.3 12.9 96.8 0 101.3L0 0Z" fill="#7b588e"></path><path d="M81 0C80.8 11.5 80.6 23 74.8 31C69.1 39 57.8 43.5 49.5 49.5C41.2 55.5 36.1 62.9 28.3 68.4C20.6 73.9 10.3 77.4 0 81L0 0Z" fill="#9e63a3"></path><path d="M60.8 0C60.6 8.6 60.4 17.2 56.1 23.2C51.8 29.3 43.3 32.6 37.1 37.1C30.9 41.6 27 47.2 21.2 51.3C15.4 55.4 7.7 58.1 0 60.8L0 0Z" fill="#c36cb4"></path><path d="M40.5 0C40.4 5.7 40.3 11.5 37.4 15.5C34.5 19.5 28.9 21.8 24.7 24.7C20.6 27.7 18 31.4 14.2 34.2C10.3 36.9 5.1 38.7 0 40.5L0 0Z" fill="#eb75c1"></path><path d="M20.3 0C20.2 2.9 20.1 5.7 18.7 7.7C17.3 9.8 14.4 10.9 12.4 12.4C10.3 13.9 9 15.7 7.1 17.1C5.1 18.5 2.6 19.4 0 20.3L0 0Z" fill="#ff79c6"></path></g></svg>